<?xml version="1.0" standalone="no"?>
<!DOCTYPE svg PUBLIC "-//W3C//DTD SVG 20010904//EN"
 "http://www.w3.org/TR/2001/REC-SVG-20010904/DTD/svg10.dtd">
<svg version="1.0" xmlns="http://www.w3.org/2000/svg"
 width="500.000000pt" height="500.000000pt" viewBox="0 0 500.000000 500.000000"
 preserveAspectRatio="xMidYMid meet">
<metadata>
Created by potrace 1.14, written by Peter Selinger 2001-2017
</metadata>
<g transform="translate(0.000000,500.000000) scale(0.100000,-0.100000)"
fill="#000000" stroke="none">
<path d="M3229 3338 c0 -2 -3 -17 -5 -35 -6 -35 3 -44 51 -49 40 -3 147 -33
158 -44 5 -4 4 -16 -2 -26 -5 -11 -26 -61 -45 -112 l-35 -93 31 -17 c16 -9 45
-27 64 -39 l33 -22 21 30 c12 16 26 29 31 29 11 0 95 -84 109 -109 8 -16 -2
-26 -63 -67 -39 -27 -78 -55 -85 -61 -7 -7 -20 -17 -29 -22 -15 -8 -14 -15 10
-67 22 -51 26 -71 24 -146 -1 -48 1 -88 3 -88 3 0 43 -13 89 -29 47 -16 88
-28 92 -25 4 2 9 1 11 -3 1 -5 26 -15 55 -25 l52 -16 10 32 c6 17 14 62 18
100 l8 70 78 -1 77 -1 0 53 c0 44 -5 80 -25 175 -1 8 -9 13 -16 12 -8 -2 -29
-6 -48 -10 -29 -4 -33 -3 -28 11 4 10 2 17 -3 17 -6 0 -10 6 -10 14 0 8 -18
49 -41 91 -22 42 -37 75 -32 72 4 -2 20 7 35 22 l27 26 -27 31 c-15 18 -36 42
-48 55 -87 100 -214 183 -349 228 -76 25 -193 48 -196 39z"/>
<path d="M1742 2982 c-13 -2 -92 -54 -175 -115 -84 -62 -221 -161 -305 -221
l-152 -110 0 -108 0 -108 43 0 c23 0 161 0 307 0 l265 1 0 -111 0 -110 186 0
185 0 0 110 -1 110 73 0 72 0 0 109 0 108 -62 1 c-35 0 -67 0 -73 1 -6 1 -9
77 -9 208 1 115 0 215 -2 223 -3 13 -30 15 -166 15 -90 0 -173 -1 -186 -3z
m-15 -357 c1 -57 -3 -85 -11 -86 -6 -1 -59 -2 -118 -3 -83 -1 -105 2 -95 11
17 17 211 162 218 162 3 1 5 -37 6 -84z"/>
<path d="M3203 2819 c9 -6 15 -14 12 -19 -3 -5 -1 -12 5 -15 6 -4 9 -1 8 7 -2
7 3 12 10 11 6 -2 12 2 12 8 0 6 -7 9 -15 6 -8 -4 -17 -2 -20 3 -4 6 -12 10
-18 10 -7 0 -4 -5 6 -11z"/>
<path d="M3280 2799 c0 -5 -4 -8 -9 -4 -5 3 -13 0 -17 -6 -4 -8 -3 -9 4 -5 14
8 16 -13 3 -33 -6 -9 -16 -11 -32 -5 -31 10 -91 6 -145 -11 -44 -13 -44 -13
-61 16 -10 16 -23 29 -31 29 -36 0 -126 -124 -142 -197 -8 -31 -7 -32 33 -40
41 -8 41 -9 44 -58 2 -28 4 -61 5 -74 2 -17 -5 -28 -29 -41 l-32 -17 21 -34
c11 -19 39 -51 62 -71 37 -34 42 -36 53 -20 39 55 34 53 83 36 57 -20 133 -14
191 14 l44 22 20 -25 c12 -14 25 -25 30 -25 29 0 116 133 99 150 -5 4 -20 10
-34 12 -24 3 -25 6 -30 89 -4 56 -11 94 -22 111 -17 26 -17 27 12 50 17 12 30
28 30 33 0 12 -62 73 -100 99 -28 18 -50 21 -50 5z"/>
<path d="M3315 2197 c-51 -27 -71 -31 -135 -32 -70 0 -103 -11 -99 -32 6 -35
-2 -43 -33 -38 -18 4 -44 13 -57 22 -23 15 -25 14 -51 -17 -26 -32 -27 -32
-57 -16 -17 8 -40 27 -51 41 -11 14 -25 25 -31 25 -6 0 -33 -22 -60 -50 -27
-27 -55 -50 -63 -50 -15 1 -36 28 -83 105 l-31 52 -72 -33 -73 -34 22 -42 c71
-138 224 -288 362 -352 69 -32 90 -41 112 -46 6 -1 20 -6 33 -11 75 -29 297
-36 387 -13 33 8 67 17 75 19 56 13 59 15 48 48 -6 18 -14 37 -18 42 -11 15
-63 165 -59 168 2 1 30 16 62 32 79 41 84 47 56 87 -13 18 -26 35 -29 38 -4 3
-26 31 -49 63 -24 31 -44 57 -45 56 0 -1 -28 -15 -61 -32z m-350 -157 c22 -11
47 -19 56 -20 34 0 38 -20 16 -98 -11 -43 -21 -78 -22 -79 0 -1 -19 3 -41 9
-21 6 -41 12 -44 13 -3 0 -16 7 -30 15 -14 7 -35 19 -47 25 -21 11 -21 11 19
83 22 40 43 72 46 72 4 -1 25 -9 47 -20z"/>
</g>
</svg>
